PathFileType	4	(X/Y/Z)	C:\Users\u0088756\Documents\documenten\software\SoftwareProjects\DC_TrackingSimulation\Data\Patient2\InputData\MarkerFile_DataSel.trc
DataRate	CameraRate	NumFrames	NumMarkers	Units	OrigDataRate	OrigDataStartFrame	OrigNumFrames
200.000000	200.000000	11	45	m	200.000000	161	257
Frame#	Times		CLAV		LSHO		LUA1		LELB		LLA1		LWRA		LWRB		LFIN		RSHO		RUA1		RELB		RLA1		RWRA		RWRB		RFIN		LASI		RASI		RPSI		LPSI		LTHI3		LKNE		LKNEmed		LTIB		LTIB2		LTIB3		LANK		LANKmed		LHEE		LTOE		LLatFoot		RTHI		RTHI2		RTHI3		RKNE		RTIB		RTIB2		RTIB3		RANK		RANKmed		RHEE		RTOE		RLatFoot		Unlabeled51		Unlabeled52		*52
			X1	Y1	Z1	X2	Y2	Z2	X3	Y3	Z3	X4	Y4	Z4	X5	Y5	Z5	X6	Y6	Z6	X7	Y7	Z7	X8	Y8	Z8	X9	Y9	Z9	X10	Y10	Z10	X11	Y11	Z11	X12	Y12	Z12	X13	Y13	Z13	X14	Y14	Z14	X15	Y15	Z15	X16	Y16	Z16	X17	Y17	Z17	X18	Y18	Z18	X19	Y19	Z19	X20	Y20	Z20	X21	Y21	Z21	X22	Y22	Z22	X23	Y23	Z23	X24	Y24	Z24	X25	Y25	Z25	X26	Y26	Z26	X27	Y27	Z27	X28	Y28	Z28	X29	Y29	Z29	X30	Y30	Z30	X31	Y31	Z31	X32	Y32	Z32	X33	Y33	Z33	X34	Y34	Z34	X35	Y35	Z35	X36	Y36	Z36	X37	Y37	Z37	X38	Y38	Z38	X39	Y39	Z39	X40	Y40	Z40	X41	Y41	Z41	X42	Y42	Z42	X43	Y43	Z43	X44	Y44	Z44	X45	Y45	Z45

161	0.8	1.1462	1.43	-0.040799	1.0317	1.4397	-0.24889	1.0757	1.1903	-0.28341	1.0497	1.0888	-0.28832	1.135	0.97894	-0.32218	1.206	0.85718	-0.28503	1.1454	0.83766	-0.33342	1.2139	0.7989	-0.34714	1.074	1.4667	0.1794	1.0933	1.224	0.24941	1.0805	1.1161	0.26269	1.1459	0.99664	0.28205	1.1838	0.86488	0.22914	1.1353	0.85765	0.29351	1.1915	0.82183	0.28432	1.1679	0.94263	-0.13327	1.1872	0.96124	0.10723	0.94086	0.98574	0.038822	0.93312	0.99134	-0.029103	1.0309	0.63911	-0.21037	0.98535	0.44143	-0.17804	1.0048	0.43365	-0.060725	0.86223	0.28853	-0.17918	0.81253	0.32017	-0.17818	0.81374	0.26218	-0.17178	0.69826	0.13496	-0.12482	0.75502	0.1264	-0.042213	0.62303	0.1285	-0.048672	0.81723	0.0099543	-0.10444	0.70864	0.01924	-0.14867	1.2299	0.72129	0.17377	1.1791	0.69035	0.1827	1.2218	0.66969	0.1736	1.2692	0.47995	0.118	1.298	0.27655	0.13402	1.2458	0.26755	0.14522	1.2778	0.2243	0.13508	1.2896	0.067336	0.1034	1.3098	0.081146	0.0077875	1.2258	0.017647	0.04657	1.4571	0.049636	0.051528	1.3835	0.0037653	0.1274	-0.077497	-0.02512	-0.67873	-0.16269	-0.030824	0.67252	1.0033	1.5926	0.024867
162	0.805	1.1513	1.4308	-0.040007	1.0364	1.4402	-0.24794	1.0799	1.1909	-0.28248	1.053	1.0898	-0.28743	1.1369	0.97854	-0.32152	1.2059	0.85537	-0.28491	1.1447	0.83716	-0.3331	1.2125	0.79698	-0.34709	1.0796	1.4674	0.18025	1.1004	1.2247	0.25	1.0884	1.1167	0.26318	1.1549	0.99764	0.28193	1.1934	0.86624	0.22861	1.1451	0.85853	0.29334	1.2019	0.82325	0.2837	1.1738	0.94352	-0.13221	1.1929	0.96204	0.10819	0.94689	0.98634	0.039868	0.93876	0.99164	-0.028039	1.04	0.63908	-0.21071	0.99599	0.44102	-0.17969	1.0154	0.43269	-0.062302	0.86962	0.29016	-0.18053	0.82118	0.32214	-0.17913	0.82123	0.26434	-0.17288	0.70404	0.13899	-0.12559	0.76101	0.12903	-0.043245	0.62934	0.13558	-0.048954	0.81883	0.01001	-0.10465	0.71055	0.022686	-0.14841	1.2349	0.72117	0.17437	1.1837	0.69038	0.18325	1.2266	0.66976	0.17392	1.2736	0.47997	0.11841	1.3013	0.27625	0.13406	1.2492	0.2677	0.14632	1.2809	0.22422	0.13547	1.2905	0.067076	0.10357	1.3106	0.080856	0.0079644	1.226	0.01784	0.046756	1.4577	0.048136	0.0516	1.3839	0.0028993	0.12759	-0.07266	-0.025086	-0.67873	-0.15787	-0.030744	0.67261	1.0082	1.5934	0.02588
163	0.81	1.1565	1.4316	-0.03924	1.0405	1.4404	-0.24724	1.0844	1.1915	-0.28142	1.0572	1.0904	-0.28546	1.1387	0.97814	-0.32086	1.2058	0.85364	-0.28484	1.1424	0.83715	-0.33408	1.2109	0.79513	-0.34696	1.0852	1.4682	0.18111	1.1075	1.2254	0.2506	1.0964	1.1174	0.26372	1.1638	0.99874	0.2818	1.2029	0.86771	0.22804	1.1551	0.85961	0.29312	1.2121	0.8247	0.28301	1.1797	0.94443	-0.13112	1.1986	0.96274	0.10916	0.95278	0.98684	0.040935	0.94462	0.99194	-0.027083	1.0493	0.639	-0.21113	1.0065	0.44052	-0.18107	1.0265	0.43164	-0.063925	0.878	0.29139	-0.18171	0.83018	0.32402	-0.17946	0.82915	0.2664	-0.17394	0.70994	0.14296	-0.12626	0.76725	0.13186	-0.044218	0.63601	0.14278	-0.049149	0.82078	0.010314	-0.10493	0.71316	0.026479	-0.14826	1.24	0.72129	0.17496	1.1886	0.69055	0.18388	1.2315	0.66989	0.17425	1.2777	0.47986	0.1189	1.3044	0.27592	0.13409	1.2524	0.26775	0.14722	1.2837	0.22403	0.1359	1.2912	0.066796	0.10374	1.3113	0.080576	0.00819	1.2263	0.017984	0.046922	1.4584	0.046726	0.051748	1.3841	0.0020293	0.12781	-0.067803	-0.02508	-0.67869	-0.15303	-0.030738	0.67253	1.0131	1.594	0.026954
164	0.815	1.1616	1.4323	-0.038483	1.045	1.4409	-0.24638	1.0887	1.1921	-0.28041	1.0607	1.0913	-0.28429	1.1405	0.97784	-0.32022	1.2056	0.85206	-0.28474	1.143	0.83661	-0.33274	1.2093	0.7934	-0.34692	1.0907	1.469	0.18199	1.1147	1.2263	0.25119	1.1043	1.118	0.26422	1.1728	0.99994	0.28169	1.2126	0.86927	0.22748	1.1654	0.86053	0.29254	1.2224	0.82622	0.28233	1.1855	0.94534	-0.13003	1.2042	0.96344	0.11016	0.95854	0.98744	0.041869	0.95034	0.99234	-0.026187	1.0588	0.63882	-0.21149	1.0173	0.44009	-0.18251	1.0379	0.4305	-0.065431	0.88674	0.29252	-0.18276	0.83957	0.32546	-0.17927	0.83736	0.26838	-0.17485	0.7162	0.14733	-0.12684	0.77362	0.13486	-0.045019	0.64305	0.15018	-0.049336	0.82269	0.010803	-0.10532	0.71665	0.030485	-0.14824	1.2453	0.72168	0.17556	1.1941	0.691	0.18469	1.2365	0.6702	0.17467	1.2817	0.4797	0.11941	1.3072	0.27553	0.13397	1.2554	0.26779	0.14793	1.2862	0.22381	0.13629	1.2919	0.066586	0.10396	1.3119	0.080316	0.0083557	1.2266	0.018087	0.047091	1.4589	0.045416	0.051929	1.3843	0.0012553	0.12805	-0.062917	-0.025033	-0.67873	-0.14812	-0.030709	0.67254	1.0184	1.595	0.027816
165	0.82	1.1667	1.433	-0.037725	1.05	1.4416	-0.24534	1.0931	1.1927	-0.27939	1.0642	1.092	-0.28297	1.1422	0.97764	-0.31957	1.2057	0.85062	-0.2846	1.1421	0.83641	-0.33251	1.2078	0.79189	-0.34704	1.0963	1.4698	0.18285	1.1218	1.2271	0.25179	1.1123	1.1187	0.26476	1.1817	1.0011	0.28158	1.2222	0.87093	0.22698	1.1755	0.86166	0.29222	1.2327	0.82779	0.28158	1.1913	0.94624	-0.12893	1.2097	0.96414	0.11116	0.9642	0.98794	0.042751	0.95586	0.99274	-0.025317	1.0686	0.63853	-0.21197	1.0282	0.43969	-0.18365	1.0497	0.42921	-0.066907	0.89583	0.29363	-0.18371	0.84887	0.32797	-0.18079	0.84594	0.27033	-0.17559	0.72278	0.15199	-0.12737	0.78011	0.13809	-0.04576	0.65054	0.1577	-0.049628	0.82477	0.011419	-0.10564	0.71816	0.035391	-0.14776	1.2503	0.72212	0.17604	1.1994	0.69136	0.1854	1.2416	0.6707	0.17518	1.2854	0.47951	0.11998	1.3097	0.27505	0.13378	1.2581	0.26776	0.14847	1.2886	0.22361	0.13661	1.2924	0.066396	0.10418	1.3125	0.080026	0.0085644	1.2267	0.018201	0.047258	1.4593	0.04414	0.052092	1.3845	0.00048529	0.12824	-0.05805	-0.024965	-0.67877	-0.14332	-0.030678	0.67257	1.0231	1.5955	0.028923
166	0.825	1.1719	1.4337	-0.036947	1.0557	1.4426	-0.24401	1.0972	1.1933	-0.27836	1.0679	1.0926	-0.28143	1.144	0.97754	-0.31894	1.206	0.84936	-0.28446	1.1417	0.83625	-0.33208	1.2061	0.79044	-0.34699	1.1018	1.4706	0.18373	1.1289	1.2279	0.2524	1.1202	1.1195	0.26532	1.1906	1.0023	0.28151	1.2318	0.87264	0.22643	1.1855	0.86289	0.29197	1.2431	0.82949	0.28085	1.1969	0.94714	-0.12781	1.2153	0.96484	0.11213	0.96984	0.98864	0.043593	0.9614	0.99324	-0.024523	1.0784	0.6382	-0.21235	1.0391	0.43932	-0.18463	1.0616	0.42785	-0.068305	0.90511	0.29485	-0.1844	0.85854	0.32995	-0.1815	0.85484	0.27233	-0.17622	0.72986	0.15682	-0.1279	0.78729	0.14129	-0.046575	0.65852	0.16537	-0.050081	0.82717	0.012328	-0.10601	0.71872	0.039852	-0.1475	1.2553	0.72268	0.17653	1.2046	0.69184	0.18613	1.2468	0.67121	0.1758	1.2891	0.47929	0.1205	1.312	0.27463	0.13394	1.2606	0.26771	0.14896	1.2907	0.22337	0.13698	1.2929	0.066166	0.1044	1.313	0.079766	0.008776	1.2268	0.018289	0.047436	1.4596	0.042952	0.052248	1.3845	-0.00024771	0.12845	-0.053203	-0.024981	-0.67877	-0.13843	-0.030602	0.67255	1.0279	1.5962	0.02946
167	0.83	1.177	1.4344	-0.036182	1.0606	1.4432	-0.243	1.1011	1.1941	-0.27735	1.0704	1.0935	-0.281	1.1458	0.97744	-0.31831	1.2054	0.84817	-0.28455	1.1411	0.83629	-0.33143	1.2044	0.78906	-0.34693	1.1073	1.4713	0.1846	1.136	1.2289	0.25298	1.1281	1.1203	0.26586	1.1996	1.0036	0.28144	1.2418	0.87443	0.22579	1.1956	0.86411	0.29164	1.2535	0.83122	0.28008	1.2025	0.94794	-0.12673	1.2207	0.96544	0.11311	0.97536	0.98924	0.044284	0.9668	0.99364	-0.0238	1.0885	0.63777	-0.21271	1.0502	0.43897	-0.18534	1.0739	0.42645	-0.069726	0.91449	0.29604	-0.18489	0.86845	0.33121	-0.18143	0.86387	0.27439	-0.17673	0.73737	0.1616	-0.12841	0.79506	0.14442	-0.047217	0.66684	0.17304	-0.050437	0.82984	0.013391	-0.10647	0.72287	0.044515	-0.14771	1.2603	0.7233	0.17704	1.2096	0.69232	0.18683	1.2522	0.67182	0.17641	1.2926	0.4791	0.12099	1.3142	0.27424	0.13439	1.2628	0.26765	0.14941	1.2924	0.22311	0.13722	1.2934	0.065936	0.10463	1.3134	0.079486	0.0089559	1.2267	0.01834	0.047619	1.4599	0.041923	0.052419	1.3844	-0.00071871	0.12875	-0.048426	-0.024903	-0.6787	-0.13417	-0.030207	0.67364	1.0329	1.5969	0.030314
168	0.835	1.1822	1.4351	-0.03542	1.0654	1.4439	-0.24199	1.1052	1.1947	-0.27637	1.0739	1.0942	-0.2796	1.1475	0.97734	-0.31771	1.2052	0.84699	-0.28448	1.1404	0.83643	-0.33102	1.2022	0.78777	-0.34681	1.113	1.4722	0.18546	1.1431	1.2297	0.25358	1.1359	1.1211	0.26645	1.2085	1.0049	0.28135	1.2516	0.87626	0.22507	1.2059	0.86543	0.29116	1.2639	0.83301	0.27931	1.208	0.94874	-0.12569	1.2261	0.96614	0.11404	0.98081	0.98974	0.044982	0.97209	0.99404	-0.023139	1.0985	0.63742	-0.21297	1.0616	0.43862	-0.186	1.0863	0.42514	-0.071124	0.9241	0.29732	-0.18539	0.87842	0.33398	-0.18249	0.87312	0.27648	-0.1771	0.74521	0.16648	-0.12889	0.80263	0.14783	-0.047911	0.67568	0.18072	-0.050779	0.8328	0.014629	-0.10693	0.72848	0.049606	-0.14817	1.2651	0.72383	0.17752	1.2147	0.6928	0.18764	1.2573	0.67255	0.17681	1.2961	0.47895	0.12148	1.3161	0.27347	0.13496	1.2648	0.26763	0.14984	1.294	0.22283	0.13769	1.2937	0.065726	0.1048	1.3137	0.079256	0.0091022	1.2267	0.01827	0.047698	1.4599	0.041292	0.052659	1.3842	-0.00098271	0.12902	-0.043539	-0.024859	-0.67871	-0.12886	-0.030481	0.67265	1.0378	1.5975	0.031135
169	0.84	1.1873	1.4357	-0.03469	1.0703	1.4446	-0.24104	1.1094	1.1952	-0.27542	1.0777	1.0949	-0.27806	1.1492	0.97734	-0.31711	1.205	0.84589	-0.2844	1.1398	0.83666	-0.33061	1.2005	0.78662	-0.34673	1.1185	1.4729	0.18628	1.1502	1.2307	0.25418	1.1437	1.1219	0.26698	1.2174	1.0063	0.28129	1.2613	0.87819	0.22451	1.216	0.86676	0.29071	1.2742	0.83481	0.27853	1.2133	0.94944	-0.12468	1.2314	0.96674	0.11495	0.98603	0.99024	0.045634	0.97758	0.99444	-0.022583	1.1083	0.63716	-0.21322	1.0732	0.4383	-0.186	1.099	0.42397	-0.072443	0.93398	0.29872	-0.18556	0.88899	0.33618	-0.18284	0.88279	0.27862	-0.17729	0.75373	0.17157	-0.12912	0.81061	0.15126	-0.048376	0.68522	0.18841	-0.050983	0.83609	0.015993	-0.10732	0.73401	0.056376	-0.14734	1.2701	0.72465	0.17782	1.2198	0.69323	0.18832	1.2623	0.67309	0.17739	1.2994	0.47883	0.12195	1.3179	0.273	0.13536	1.2664	0.26754	0.15028	1.2955	0.22258	0.13809	1.2939	0.065546	0.10487	1.3137	0.078986	0.0091764	1.2265	0.018189	0.0478	1.4596	0.040832	0.052814	1.384	-0.0012097	0.12923	-0.038683	-0.024806	-0.67869	-0.12382	-0.030497	0.6725	1.0428	1.5982	0.031969
170	0.845	1.1924	1.4364	-0.033927	1.0752	1.4452	-0.24014	1.1134	1.1957	-0.27451	1.0816	1.0957	-0.27658	1.151	0.97744	-0.31653	1.2048	0.84487	-0.28433	1.1393	0.83696	-0.33022	1.1988	0.78557	-0.34661	1.1242	1.4738	0.18704	1.1573	1.2316	0.25479	1.1516	1.1226	0.26759	1.2263	1.0077	0.28122	1.2712	0.88015	0.22394	1.2263	0.86813	0.29012	1.2846	0.8367	0.27771	1.2186	0.95004	-0.12371	1.2367	0.96734	0.11585	0.99128	0.99074	0.046217	0.98265	0.99474	-0.022011	1.1179	0.63678	-0.21372	1.0848	0.4382	-0.18644	1.1117	0.42299	-0.073666	0.94395	0.30022	-0.18594	0.89949	0.33818	-0.18278	0.8925	0.28087	-0.17765	0.76267	0.17669	-0.12936	0.8189	0.15463	-0.048717	0.69528	0.19606	-0.051206	0.83951	0.017496	-0.10771	0.73888	0.062556	-0.14694	1.2752	0.7252	0.17851	1.2248	0.69367	0.18861	1.2671	0.6736	0.17795	1.3025	0.47873	0.12244	1.3194	0.27263	0.13561	1.2678	0.26752	0.15064	1.2966	0.22234	0.13849	1.2938	0.065416	0.10497	1.3137	0.078816	0.0092797	1.2263	0.018141	0.048003	1.4595	0.040404	0.052972	1.3837	-0.0014097	0.12945	-0.033846	-0.024786	-0.67873	-0.11857	-0.03053	0.6723	1.0478	1.5987	0.032832
171	0.85	1.1976	1.437	-0.033202	1.0801	1.4458	-0.23925	1.1175	1.1963	-0.27363	1.0853	1.0964	-0.2752	1.1527	0.97744	-0.31599	1.2047	0.84396	-0.28426	1.1386	0.83739	-0.33003	1.197	0.7846	-0.34646	1.1298	1.4746	0.18784	1.1644	1.2324	0.25536	1.1593	1.1234	0.26817	1.2351	1.0091	0.28118	1.281	0.88217	0.2234	1.2365	0.86953	0.28962	1.2951	0.83862	0.27686	1.2239	0.95074	-0.12281	1.2418	0.96794	0.11671	0.9965	0.99134	0.046732	0.98767	0.99504	-0.021474	1.128	0.63652	-0.21393	1.0966	0.43809	-0.18682	1.1252	0.42238	-0.075245	0.95417	0.30181	-0.18631	0.91016	0.34039	-0.18302	0.9023	0.28327	-0.17815	0.77217	0.18179	-0.12957	0.82754	0.15792	-0.048952	0.706	0.20358	-0.051418	0.8434	0.019246	-0.10799	0.74446	0.068666	-0.14705	1.2799	0.72566	0.17911	1.2301	0.69375	0.18952	1.2717	0.67408	0.17853	1.3054	0.47861	0.12293	1.3207	0.27232	0.13587	1.2691	0.2675	0.151	1.2976	0.22203	0.13899	1.2937	0.065326	0.10507	1.3136	0.078616	0.0093979	1.226	0.018046	0.048172	1.4593	0.039947	0.053119	1.3834	-0.0016117	0.12971	-0.028949	-0.024754	-0.67868	-0.11416	-0.030346	0.67258	1.0529	1.5992	0.033589
